<svg width="24" height="24" viewBox="0 0 24 24" fill="none" xmlns="http://www.w3.org/2000/svg">
<path d="M11.968 20.2846H1.9518C1.42385 20.2846 1 19.8607 1 19.3328V9.31655C1 8.7886 1.42385 8.36475 1.9518 8.36475H11.968C12.496 8.36475 12.9198 8.7886 12.9198 9.31655V19.3328C12.9198 19.8607 12.496 20.2846 11.968 20.2846Z" fill="#FF8833"/>
<path fill-rule="evenodd" clip-rule="evenodd" d="M4.74797 5.33138C4.7241 5.35525 4.71387 5.38297 4.71387 5.40882V9.75141H3.22668V5.40882C3.22668 4.52968 3.94627 3.81009 4.82541 3.81009H8.99698C9.87612 3.81009 10.5957 4.52968 10.5957 5.40882V9.66218H9.10852V5.40882C9.10852 5.38297 9.09829 5.35525 9.07442 5.33138C9.05054 5.3075 9.02282 5.29728 8.99698 5.29728H4.82541C4.79956 5.29728 4.77185 5.3075 4.74797 5.33138Z" fill="#FF8833"/>
<path d="M8.56973 12.6922C8.56973 11.7999 7.84844 11.0786 6.95613 11.0786C6.06382 11.0786 5.34253 11.7999 5.34253 12.6922C5.34253 13.2945 5.67715 13.8225 6.16792 14.0976L5.34253 17.4884H6.95613H8.56973L7.74434 14.0976C8.23511 13.8225 8.56973 13.2945 8.56973 12.6922Z" fill="#8D33FF"/>
<path fill-rule="evenodd" clip-rule="evenodd" d="M21.9542 16.9375C21.7036 16.2415 20.9362 15.8804 20.2402 16.131C19.5442 16.3816 19.1831 17.149 19.4337 17.845C19.6843 18.541 20.4517 18.9021 21.1477 18.6515C21.8437 18.4009 22.2048 17.6335 21.9542 16.9375ZM19.9014 15.1902C21.1171 14.7525 22.4574 15.3831 22.895 16.5987C23.3327 17.8144 22.7021 19.1547 21.4865 19.5923C20.2708 20.03 18.9305 19.3994 18.4929 18.1838C18.0552 16.9681 18.6858 15.6278 19.9014 15.1902Z" fill="#8D33FF" stroke="#8D33FF" stroke-width="0.5" stroke-miterlimit="10"/>
<path fill-rule="evenodd" clip-rule="evenodd" d="M15.5622 3.71934C15.822 3.62579 16.1084 3.76058 16.202 4.02039L20.3041 15.4137C20.3977 15.6735 20.2629 15.96 20.0031 16.0535C19.7433 16.1471 19.4568 16.0123 19.3633 15.7525L15.2611 4.35916C15.1676 4.09934 15.3023 3.81288 15.5622 3.71934Z" fill="#8D33FF" stroke="#8D33FF" stroke-width="0.5" stroke-miterlimit="10" stroke-linecap="round" stroke-linejoin="round"/>
<path d="M15.7778 5.05371L17.1279 8.80347L15.2908 9.46493C15.031 9.55847 14.7446 9.42368 14.651 9.16387L13.6397 6.35498C13.5461 6.09517 13.6809 5.80871 13.9407 5.71516L15.7778 5.05371Z" fill="#8D33FF"/>
</svg>
