<svg width="24" height="24" viewBox="0 0 24 24" fill="none" xmlns="http://www.w3.org/2000/svg">
<path fill-rule="evenodd" clip-rule="evenodd" d="M2.22451 5.8302C2.46745 5.52896 2.9086 5.48169 3.20985 5.72463L10.4507 11.564C10.752 11.807 10.7992 12.2481 10.5563 12.5494C10.3133 12.8506 9.87219 12.8979 9.57095 12.655L2.33008 6.81555C2.02884 6.5726 1.98157 6.13145 2.22451 5.8302Z" fill="#8D33FF"/>
<path d="M18.8649 6.93878C15.2758 4.50607 12.1865 9.49353 12.1865 9.49353C12.1865 9.49353 9.05389 4.50607 5.4648 6.93878C2.28892 9.08414 4.51636 14.8549 12.1432 19.3503C19.8133 14.8549 22.0407 9.1235 18.8649 6.93878Z" fill="#FF8833"/>
<path fill-rule="evenodd" clip-rule="evenodd" d="M12.0331 12.8396C12.2749 12.5374 12.7158 12.4884 13.018 12.7302L17.6895 16.4674C17.9917 16.7092 18.0407 17.1501 17.799 17.4523C17.5572 17.7545 17.1163 17.8035 16.8141 17.5618L12.1425 13.8245C11.8403 13.5828 11.7913 13.1418 12.0331 12.8396Z" fill="#8D33FF"/>
<path d="M1.70761 7.75447L1.22568 5.34539C1.1628 5.03107 1.42792 4.74825 1.74563 4.79071L4.1808 5.11615C4.55742 5.16648 4.71961 5.62146 4.45974 5.89868L2.50651 7.98232C2.24665 8.25954 1.78215 8.12706 1.70761 7.75447Z" fill="#8D33FF"/>
<path d="M15.8502 18.7066V16.0803L18.186 17.866V19.7967C18.186 20.1854 17.7389 20.4041 17.432 20.1654L16.0306 19.0754C15.9168 18.9869 15.8502 18.8508 15.8502 18.7066Z" fill="#8D33FF"/>
<path d="M18.3861 15.5551L15.8502 16.0793L18.1664 17.9549L19.8973 17.5972C20.278 17.5185 20.4016 17.0364 20.1058 16.7842L18.7837 15.6571C18.674 15.5636 18.5273 15.526 18.3861 15.5551Z" fill="#8D33FF"/>
</svg>
