<svg width="24" height="24" viewBox="0 0 24 24" fill="none" xmlns="http://www.w3.org/2000/svg">
<path d="M1.60179 11.3984C1.26943 10.6396 1.61516 9.75498 2.37399 9.42263L13.9426 4.35576C14.7014 4.0234 15.586 4.36912 15.9183 5.12796L18.477 10.9699C18.8094 11.7287 18.4637 12.6133 17.7048 12.9457L6.13626 18.0126C5.37743 18.3449 4.49284 17.9992 4.16048 17.2404L1.60179 11.3984Z" fill="#8D33FF"/>
<path d="M5.89842 13.4165C5.56606 12.6577 5.91179 11.7731 6.67062 11.4407L18.2392 6.37385C18.998 6.04149 19.8826 6.38722 20.215 7.14605L22.7737 12.988C23.106 13.7468 22.7603 14.6314 22.0015 14.9638L10.4329 20.0307C9.67406 20.363 8.78947 20.0173 8.45711 19.2584L5.89842 13.4165Z" fill="#FF8833"/>
<mask id="mask0_1_2714" style="mask-type:alpha" maskUnits="userSpaceOnUse" x="5" y="6" width="18" height="15">
<path d="M6.02281 13.362C5.69045 12.6031 6.03618 11.7185 6.79501 11.3862L18.2391 6.37384C18.9979 6.04148 19.8825 6.38721 20.2149 7.14605L22.7736 12.988C23.1059 13.7468 22.7602 14.6314 22.0014 14.9638L10.5573 19.9761C9.79844 20.3085 8.91386 19.9627 8.5815 19.2039L6.02281 13.362Z" fill="#FF8833"/>
</mask>
<g mask="url(#mask0_1_2714)">
<path fill-rule="evenodd" clip-rule="evenodd" d="M23.7293 11.6132L7.29637 18.8105L6.69458 17.4366L23.1275 10.2392L23.7293 11.6132Z" fill="#8D33FF"/>
<path d="M19.3713 8.55954C19.6186 9.12431 19.3613 9.78268 18.7966 10.03C18.2318 10.2774 17.5734 10.0201 17.3261 9.45532C17.0787 8.89055 17.336 8.23218 17.9008 7.98482C18.4656 7.73746 19.1239 7.99477 19.3713 8.55954Z" fill="#8D33FF"/>
</g>
</svg>
