<svg width="24" height="24" viewBox="0 0 24 24" fill="none" xmlns="http://www.w3.org/2000/svg">
<path d="M14.385 15.4621C14.3263 15.7693 14.2359 16.0721 14.1139 16.3568C14.1365 16.3025 14.1591 16.2483 14.1817 16.1941C14.0371 16.533 13.8519 16.8538 13.6259 17.143C13.6621 17.0978 13.6982 17.0526 13.7299 17.0074C13.5175 17.2831 13.2735 17.5271 12.9978 17.7394C13.043 17.7033 13.0882 17.6671 13.1334 17.6355C12.8668 17.8388 12.5776 18.0105 12.2704 18.1416C12.3246 18.119 12.3788 18.0964 12.433 18.0738C12.1348 18.2003 11.823 18.2862 11.5022 18.3314C11.5609 18.3223 11.6242 18.3133 11.6829 18.3088C11.3712 18.3494 11.0594 18.3494 10.7476 18.3088C10.8063 18.3178 10.8696 18.3268 10.9283 18.3314C10.6121 18.2907 10.3048 18.2048 10.0111 18.0828C10.0653 18.1054 10.1195 18.128 10.1738 18.1506C9.8936 18.0331 9.63152 17.875 9.38752 17.6897C9.43271 17.7259 9.47789 17.762 9.52308 17.7937C9.26552 17.5948 9.03959 17.3644 8.84078 17.1114C8.87693 17.1565 8.91307 17.2017 8.9447 17.2469C8.73685 16.9758 8.56515 16.6776 8.42959 16.3613C8.45218 16.4155 8.47478 16.4697 8.49737 16.5239C8.35277 16.1805 8.25337 15.819 8.20366 15.4485C8.2127 15.5073 8.22174 15.5705 8.22625 15.6293C8.17655 15.2452 8.17655 14.8521 8.22625 14.468C8.21722 14.5267 8.20818 14.59 8.20366 14.6487C8.2127 14.5674 8.22626 14.4816 8.24433 14.4002C8.27144 14.3099 8.27596 14.2195 8.25788 14.1291C8.25337 14.0387 8.22626 13.9529 8.17655 13.8761C8.09522 13.736 7.93255 13.6004 7.76988 13.5643C7.59818 13.5236 7.40388 13.5327 7.24573 13.6321C7.10565 13.7224 6.96558 13.867 6.93395 14.0387C6.84358 14.5222 6.80291 15.0147 6.85262 15.5028C6.90232 15.9727 6.99721 16.4291 7.17795 16.8628C7.27736 17.0978 7.37677 17.3282 7.50781 17.5451C7.63884 17.762 7.78796 17.9654 7.95062 18.1597C8.23529 18.5076 8.58322 18.8013 8.96278 19.0408C9.15256 19.1628 9.35137 19.2577 9.55923 19.348C9.7716 19.4384 9.98397 19.5152 10.2054 19.5649C10.6527 19.6689 11.1272 19.714 11.5835 19.6643C11.8366 19.6372 12.0896 19.5966 12.3336 19.5288C12.5731 19.461 12.8035 19.3661 13.034 19.2667C13.4452 19.0814 13.8202 18.8194 14.1546 18.5211C14.498 18.2139 14.8007 17.8479 15.0402 17.4548C15.2888 17.0526 15.4785 16.6008 15.605 16.1444C15.6322 16.0359 15.6593 15.9275 15.6819 15.8191C15.709 15.7287 15.7135 15.6383 15.6954 15.5479C15.6909 15.4576 15.6638 15.3717 15.6141 15.2949C15.5328 15.1548 15.3701 15.0193 15.2074 14.9831C15.0357 14.9425 14.8414 14.9515 14.6833 15.0509C14.5522 15.1503 14.4167 15.2904 14.385 15.4621Z" fill="#8D33FF"/>
<path d="M18.7628 18.2733C17.9611 18.2733 17.3004 17.6174 17.3004 16.811V5.96235C17.3004 5.16073 17.9563 4.5 18.7628 4.5C19.5644 4.5 20.2251 5.15587 20.2251 5.96235V16.8158C20.2203 17.6174 19.5644 18.2733 18.7628 18.2733Z" fill="#FF8833"/>
<path d="M4.96235 15.4696C4.16073 15.4696 3.5 14.8137 3.5 14.0072V8.76997C3.5 7.96835 4.15587 7.30762 4.96235 7.30762C5.76397 7.30762 6.42471 7.96349 6.42471 8.76997V14.0072C6.41985 14.8089 5.76397 15.4696 4.96235 15.4696Z" fill="#FF8833"/>
<path d="M6.35522 8.70506L18.2522 5.92764V16.8728L6.35522 14.1389V8.70506Z" fill="#FF8833"/>
</svg>
