<svg width="24" height="24" viewBox="0 0 24 24" fill="none" xmlns="http://www.w3.org/2000/svg">
<path fill-rule="evenodd" clip-rule="evenodd" d="M16.9 1.5H6.76663V6.56667C6.76663 8.47428 7.82085 10.1357 9.37848 11C7.82084 11.8643 6.7666 13.5257 6.7666 15.4333L6.7666 20.5H16.8999V15.4333C16.8999 13.5257 15.8457 11.8643 14.2881 11C15.8457 10.1357 16.9 8.47429 16.9 6.56667V1.5Z" fill="#8D33FF"/>
<mask id="mask0_1_2727" style="mask-type:alpha" maskUnits="userSpaceOnUse" x="6" y="1" width="11" height="20">
<path fill-rule="evenodd" clip-rule="evenodd" d="M16.9 1.5H6.76663V6.56667C6.76663 8.47428 7.82085 10.1357 9.37848 11C7.82084 11.8643 6.7666 13.5257 6.7666 15.4333L6.7666 20.5H16.8999V15.4333C16.8999 13.5257 15.8457 11.8643 14.2881 11C15.8457 10.1357 16.9 8.47429 16.9 6.56667V1.5Z" fill="#731DE0"/>
</mask>
<g mask="url(#mask0_1_2727)">
<path d="M15.6332 11.0001H8.66658L7.39991 10.5778C7.04806 9.59263 6.4288 7.74893 6.76658 8.25559C7.1888 8.88893 9.51102 9.10013 12.4666 8.04458C14.831 7.20013 16.5481 7.97421 17.111 8.4668L15.6332 11.0001Z" fill="#FF8833"/>
<path d="M6.32458 19.6557H16.1839L17.9765 19.0669C18.4745 17.6934 19.3508 15.1229 18.8728 15.8293C18.2753 16.7123 14.9888 17.0068 10.8061 15.5351C7.4599 14.3578 5.02992 15.437 4.23321 16.1238L6.32458 19.6557Z" fill="#FF8833"/>
<path d="M11.411 12.2665C11.411 12.6163 11.1274 12.8998 10.7776 12.8998C10.4278 12.8998 10.1443 12.6163 10.1443 12.2665C10.1443 11.9167 10.4278 11.6332 10.7776 11.6332C11.1274 11.6332 11.411 11.9167 11.411 12.2665Z" fill="#FF8833"/>
<path d="M13.5222 14.3777C13.5222 14.7275 13.2386 15.011 12.8888 15.011C12.539 15.011 12.2555 14.7275 12.2555 14.3777C12.2555 14.0279 12.539 13.7444 12.8888 13.7444C13.2386 13.7444 13.5222 14.0279 13.5222 14.3777Z" fill="#FF8833"/>
<path d="M11.8333 15.6446C11.8333 15.9944 11.5498 16.278 11.2 16.278C10.8502 16.278 10.5667 15.9944 10.5667 15.6446C10.5667 15.2948 10.8502 15.0113 11.2 15.0113C11.5498 15.0113 11.8333 15.2948 11.8333 15.6446Z" fill="#FF8833"/>
</g>
<path d="M5.5 2.5C5.5 1.94771 5.94772 1.5 6.5 1.5H17.1667C17.719 1.5 18.1667 1.94772 18.1667 2.5V3.45556C18.1667 4.00784 17.719 4.45556 17.1667 4.45556H6.5C5.94772 4.45556 5.5 4.00784 5.5 3.45556V2.5Z" fill="#FF8833"/>
<path d="M5.5 18.5446C5.5 17.9923 5.94772 17.5446 6.5 17.5446H17.1667C17.719 17.5446 18.1667 17.9923 18.1667 18.5446V19.5001C18.1667 20.0524 17.719 20.5001 17.1667 20.5001H6.5C5.94772 20.5001 5.5 20.0524 5.5 19.5001V18.5446Z" fill="#FF8833"/>
</svg>
