<svg width="336" height="180" viewBox="0 0 336 180" fill="none" xmlns="http://www.w3.org/2000/svg">
<rect x="38.4188" y="77.1351" width="260.581" height="79.4221" rx="9.65204" transform="rotate(2 38.4188 77.1351)" fill="white"/>
<rect x="37.9575" y="76.6403" width="261.537" height="80.3788" rx="10.1304" transform="rotate(2 37.9575 76.6403)" stroke="#00BB77" stroke-opacity="0.2" stroke-width="0.956666"/>
<rect x="28" y="88.4388" width="275.887" height="79.4221" rx="9.65204" transform="rotate(-3 28 88.4388)" fill="white"/>
<circle cx="61.1235" cy="130.374" r="12.065" transform="rotate(-3 61.1235 130.374)" fill="#00BB77"/>
<circle cx="61.1235" cy="130.374" r="11.2607" transform="rotate(-3 61.1235 130.374)" stroke="#00BB77" stroke-opacity="0.2" stroke-width="1.60867"/>
<path d="M57.2984 127.725L58.8524 127.644L61.1997 132.614L61.2819 132.61L63.0968 127.421L64.6508 127.34L65.0182 134.35L63.7996 134.414L63.5472 129.598L63.4822 129.601L61.7962 134.498L60.8857 134.546L58.6965 129.842L58.6314 129.845L58.8844 134.672L57.6658 134.735L57.2984 127.725Z" fill="white"/>
<circle cx="96.4659" cy="128.522" r="12.065" transform="rotate(-3 96.4659 128.522)" fill="#00BB77"/>
<circle cx="96.4659" cy="128.522" r="11.2607" transform="rotate(-3 96.4659 128.522)" stroke="#00BB77" stroke-opacity="0.2" stroke-width="1.60867"/>
<path d="M93.5745 126.892L93.5187 125.827L99.1117 125.534L99.1675 126.599L97.0008 126.712L97.3124 132.658L96.0528 132.724L95.7412 126.778L93.5745 126.892Z" fill="white"/>
<circle cx="131.808" cy="126.67" r="12.065" transform="rotate(-3 131.808 126.67)" fill="#00BB77"/>
<circle cx="131.808" cy="126.67" r="11.2607" transform="rotate(-3 131.808 126.67)" stroke="#00BB77" stroke-opacity="0.2" stroke-width="1.60867"/>
<path d="M129.341 130.979L126.995 124.073L128.361 124.001L129.894 129.086L129.959 129.083L131.038 123.861L132.28 123.796L133.902 128.88L133.964 128.877L134.957 123.655L136.322 123.584L134.711 130.698L133.459 130.763L131.797 125.918L131.743 125.921L130.594 130.913L129.341 130.979Z" fill="white"/>
<circle cx="167.15" cy="124.818" r="11.2607" transform="rotate(-3 167.15 124.818)" stroke="#00BB77" stroke-opacity="0.2" stroke-width="1.60867"/>
<path d="M166.561 113.57C166.538 113.128 166.878 112.748 167.321 112.754C169.507 112.785 171.649 113.409 173.514 114.568C175.608 115.867 177.253 117.777 178.229 120.04C179.205 122.302 179.465 124.81 178.973 127.224C178.535 129.376 177.519 131.363 176.041 132.974C175.742 133.3 175.232 133.286 174.926 132.966C174.62 132.645 174.635 132.14 174.931 131.81C176.173 130.428 177.029 128.735 177.401 126.904C177.827 124.811 177.602 122.637 176.756 120.675C175.91 118.713 174.483 117.058 172.668 115.931C171.081 114.945 169.263 114.405 167.405 114.36C166.962 114.349 166.584 114.013 166.561 113.57Z" fill="#00BB77"/>
<path d="M164.259 123.187L164.203 122.123L169.796 121.83L169.852 122.894L167.685 123.008L167.997 128.953L166.737 129.019L166.426 123.074L164.259 123.187Z" fill="#00BB77"/>
<rect x="156.07" y="143.924" width="24.1301" height="1.60867" rx="0.804337" transform="rotate(-3 156.07 143.924)" fill="#00BB77"/>
<circle cx="202.493" cy="122.966" r="11.2607" transform="rotate(-3 202.493 122.966)" stroke="#00BB77" stroke-opacity="0.2" stroke-width="1.60867"/>
<path d="M200.579 127.246L200.211 120.236L204.702 120L204.758 121.065L201.537 121.234L201.637 123.137L204.55 122.984L204.605 124.049L201.693 124.201L201.849 127.179L200.579 127.246Z" fill="#00BB77"/>
<circle cx="237.835" cy="121.113" r="11.2607" transform="rotate(-3 237.835 121.113)" stroke="#00BB77" stroke-opacity="0.2" stroke-width="1.60867"/>
<path d="M239.158 120.127C239.111 119.83 238.964 119.604 238.718 119.45C238.474 119.296 238.164 119.228 237.788 119.248C237.523 119.262 237.298 119.314 237.113 119.403C236.927 119.493 236.788 119.609 236.695 119.751C236.602 119.894 236.559 120.053 236.566 120.228C236.573 120.374 236.613 120.499 236.685 120.603C236.759 120.707 236.856 120.793 236.976 120.862C237.097 120.929 237.229 120.984 237.373 121.027C237.517 121.07 237.662 121.105 237.807 121.131L238.473 121.261C238.741 121.309 239 121.379 239.249 121.471C239.501 121.563 239.729 121.684 239.931 121.833C240.136 121.983 240.301 122.168 240.427 122.387C240.553 122.607 240.624 122.869 240.639 123.173C240.661 123.583 240.575 123.951 240.381 124.274C240.188 124.596 239.897 124.854 239.509 125.051C239.123 125.245 238.65 125.357 238.089 125.386C237.543 125.415 237.065 125.355 236.655 125.207C236.247 125.059 235.921 124.829 235.678 124.517C235.438 124.205 235.296 123.816 235.253 123.352L236.503 123.286C236.534 123.53 236.62 123.729 236.761 123.884C236.901 124.039 237.08 124.151 237.296 124.22C237.515 124.288 237.757 124.316 238.021 124.302C238.298 124.287 238.537 124.234 238.741 124.141C238.946 124.045 239.104 123.92 239.215 123.766C239.326 123.609 239.377 123.43 239.369 123.229C239.357 123.046 239.296 122.899 239.184 122.786C239.073 122.67 238.921 122.577 238.727 122.507C238.536 122.435 238.313 122.374 238.058 122.323L237.25 122.159C236.665 122.041 236.197 121.84 235.846 121.557C235.497 121.271 235.309 120.877 235.283 120.375C235.261 119.962 235.354 119.594 235.561 119.272C235.771 118.95 236.065 118.693 236.444 118.502C236.823 118.308 237.258 118.198 237.748 118.172C238.246 118.146 238.686 118.21 239.069 118.364C239.455 118.515 239.763 118.738 239.993 119.033C240.224 119.325 240.353 119.668 240.38 120.063L239.158 120.127Z" fill="#00BB77"/>
<circle cx="273.177" cy="119.261" r="11.2607" transform="rotate(-3 273.177 119.261)" stroke="#00BB77" stroke-opacity="0.2" stroke-width="1.60867"/>
<path d="M274.501 118.275C274.453 117.977 274.306 117.752 274.06 117.597C273.816 117.443 273.506 117.376 273.13 117.396C272.865 117.41 272.64 117.461 272.455 117.551C272.27 117.641 272.131 117.757 272.037 117.899C271.944 118.041 271.901 118.2 271.908 118.376C271.915 118.522 271.955 118.647 272.027 118.751C272.101 118.855 272.198 118.941 272.319 119.01C272.439 119.077 272.571 119.132 272.715 119.175C272.859 119.218 273.004 119.252 273.15 119.279L273.815 119.409C274.083 119.457 274.342 119.527 274.592 119.619C274.844 119.711 275.071 119.832 275.273 119.981C275.478 120.131 275.643 120.315 275.769 120.535C275.895 120.755 275.966 121.017 275.982 121.32C276.003 121.731 275.917 122.098 275.724 122.422C275.53 122.743 275.239 123.002 274.851 123.199C274.466 123.393 273.992 123.505 273.431 123.534C272.886 123.563 272.408 123.503 271.997 123.355C271.589 123.207 271.263 122.977 271.021 122.665C270.78 122.353 270.638 121.964 270.596 121.5L271.845 121.434C271.876 121.677 271.962 121.877 272.103 122.032C272.244 122.187 272.422 122.299 272.639 122.367C272.857 122.436 273.099 122.463 273.364 122.449C273.64 122.435 273.88 122.381 274.083 122.288C274.288 122.193 274.447 122.068 274.558 121.913C274.668 121.756 274.72 121.578 274.711 121.377C274.7 121.194 274.638 121.046 274.527 120.933C274.415 120.818 274.263 120.725 274.069 120.655C273.878 120.583 273.655 120.521 273.401 120.471L272.592 120.307C272.007 120.189 271.539 119.988 271.188 119.704C270.839 119.418 270.651 119.024 270.625 118.522C270.603 118.109 270.696 117.742 270.904 117.42C271.113 117.098 271.407 116.841 271.786 116.649C272.165 116.455 272.6 116.346 273.091 116.32C273.588 116.294 274.028 116.358 274.412 116.512C274.797 116.663 275.105 116.886 275.336 117.181C275.566 117.473 275.695 117.816 275.723 118.211L274.501 118.275Z" fill="#00BB77"/>
<rect x="27.4973" y="87.9862" width="276.844" height="80.3788" rx="10.1304" transform="rotate(-3 27.4973 87.9862)" stroke="#00BB77" stroke-opacity="0.2" stroke-width="0.956666"/>
<circle cx="188.982" cy="59.5247" r="43.2416" transform="rotate(6 188.982 59.5247)" fill="#0066FF"/>
<circle cx="188.982" cy="59.5247" r="44.2472" transform="rotate(6 188.982 59.5247)" stroke="#0066FF" stroke-opacity="0.2" stroke-width="2.01124"/>
<path d="M168.471 45.0358L165.869 44.7623L162.412 46.4737L162.154 48.9285L165.35 47.3642L165.427 47.3722L164.327 57.8372L167.095 58.1281L168.471 45.0358ZM174.969 59.1367C177.885 59.4431 180.066 57.7528 180.338 55.1055C180.607 52.6002 179.045 50.6134 176.686 50.3654C175.536 50.2445 174.494 50.6198 173.966 51.2171L173.89 51.209L174.573 47.9652L180.295 48.5665L180.532 46.3035L172.529 45.4622L171.183 52.3012L173.598 53.001C174.058 52.5 174.873 52.2431 175.647 52.3244C176.963 52.4692 177.809 53.5212 177.665 54.8956C177.521 56.2573 176.496 57.0996 175.198 56.9632C174.098 56.8476 173.282 56.0638 173.325 55.0407L170.64 54.7585C170.454 57.0269 172.259 58.8518 174.969 59.1367ZM186.001 60.1153L188.725 60.4015L189.344 54.5074C189.458 53.4206 190.225 52.7708 191.133 52.8662C192.028 52.9603 192.564 53.6371 192.462 54.6024L191.819 60.7267L194.459 61.0042L195.089 55.0078C195.196 53.9913 195.85 53.3621 196.841 53.4662C197.711 53.5576 198.306 54.1695 198.191 55.2627L197.553 61.3294L200.27 61.6149L200.964 55.0112C201.188 52.8825 200.05 51.5348 198.221 51.3426C196.783 51.1915 195.587 51.809 195.066 52.8918L194.964 52.8811C194.77 51.7102 193.842 50.8824 192.494 50.7406C191.17 50.6015 190.093 51.1992 189.562 52.3133L189.447 52.3012L189.629 50.5688L187.033 50.296L186.001 60.1153ZM202.421 61.841L205.144 62.1273L206.177 52.308L203.453 52.0218L202.421 61.841ZM204.954 50.8998C205.766 50.9851 206.496 50.4349 206.576 49.6742C206.655 48.9198 206.056 48.2299 205.244 48.1445C204.438 48.0599 203.708 48.6101 203.629 49.3644C203.549 50.1252 204.149 50.8152 204.954 50.8998ZM210.646 56.966C210.785 55.7009 211.618 55.0387 212.717 55.1542C213.81 55.2691 214.394 56.0543 214.261 57.2555L213.655 63.0217L216.378 63.308L217.035 57.0559C217.276 54.7673 216.081 53.2198 214.035 53.0048C212.578 52.8516 211.448 53.4567 210.886 54.5546L210.771 54.5425L210.953 52.8101L208.358 52.5373L207.326 62.3566L210.049 62.6428L210.646 56.966Z" fill="white"/>
<path d="M166.681 75.7934L167.622 66.8427L168.588 66.9443L168.479 67.9784L168.598 67.9908C168.683 67.8855 168.8 67.7521 168.949 67.5906C169.1 67.4266 169.306 67.2883 169.566 67.1757C169.83 67.0605 170.173 67.0252 170.597 67.0698C171.145 67.1274 171.614 67.3152 172.003 67.6332C172.393 67.9512 172.678 68.374 172.86 68.9015C173.042 69.4291 173.096 70.0348 173.025 70.7185C172.952 71.4079 172.772 71.9931 172.484 72.4742C172.197 72.9525 171.831 73.3082 171.387 73.5414C170.943 73.7718 170.449 73.8585 169.907 73.8015C169.489 73.7576 169.161 73.6532 168.924 73.4883C168.688 73.3206 168.511 73.1406 168.394 72.9484C168.277 72.7533 168.189 72.5926 168.128 72.4662L168.043 72.4573L167.681 75.8985L166.681 75.7934ZM168.263 70.2009C168.211 70.6925 168.238 71.1337 168.342 71.5247C168.447 71.9127 168.627 72.2273 168.882 72.4683C169.136 72.7065 169.464 72.8466 169.866 72.8888C170.284 72.9328 170.644 72.8592 170.947 72.6683C171.253 72.4748 171.497 72.1975 171.677 71.8366C171.861 71.4732 171.978 71.0598 172.026 70.5964C172.074 70.1387 172.047 69.7188 171.944 69.3366C171.845 68.952 171.665 68.6374 171.405 68.393C171.148 68.146 170.808 68.0003 170.384 67.9558C169.977 67.913 169.625 67.9802 169.326 68.1573C169.028 68.3317 168.789 68.595 168.609 68.9475C168.429 69.2971 168.314 69.7149 168.263 70.2009ZM176.925 74.5392C176.298 74.4732 175.771 74.2779 175.346 73.9532C174.923 73.626 174.615 73.1994 174.422 72.6735C174.232 72.1451 174.172 71.5475 174.242 70.8807C174.312 70.2139 174.495 69.639 174.791 69.156C175.091 68.6704 175.475 68.308 175.943 68.0686C176.414 67.8268 176.943 67.7367 177.531 67.7985C177.87 67.8341 178.199 67.9258 178.517 68.0736C178.836 68.2213 179.118 68.4366 179.362 68.7194C179.607 68.9994 179.788 69.3555 179.905 69.7877C180.023 70.22 180.05 70.7398 179.986 71.3473L179.941 71.7711L174.923 71.2437L175.014 70.3791L179.015 70.7996C179.053 70.4323 179.014 70.0969 178.898 69.7932C178.784 69.4899 178.602 69.2408 178.351 69.0459C178.103 68.8513 177.798 68.735 177.436 68.697C177.038 68.6551 176.683 68.7177 176.371 68.8849C176.062 69.0496 175.814 69.2806 175.625 69.5778C175.437 69.8751 175.324 70.2032 175.286 70.562L175.226 71.1384C175.174 71.63 175.215 72.0556 175.349 72.4153C175.485 72.7725 175.697 73.0561 175.983 73.2661C176.27 73.4734 176.615 73.5982 177.019 73.6407C177.282 73.6683 177.523 73.6565 177.743 73.6053C177.966 73.5516 178.163 73.4581 178.334 73.3247C178.505 73.1884 178.645 73.0117 178.754 72.7946L179.692 73.1674C179.555 73.4845 179.354 73.7547 179.088 73.9781C178.822 74.1986 178.505 74.3596 178.137 74.4609C177.77 74.5594 177.366 74.5855 176.925 74.5392ZM181.156 74.8468L181.84 68.3372L182.807 68.4387L182.703 69.4219L182.771 69.4291C182.924 69.1194 183.166 68.8807 183.498 68.7127C183.829 68.5448 184.19 68.4813 184.58 68.5223C184.654 68.53 184.745 68.5411 184.855 68.5555C184.965 68.5699 185.048 68.5829 185.104 68.5945L184.997 69.6116C184.964 69.5996 184.888 69.5787 184.768 69.549C184.651 69.5167 184.527 69.4936 184.394 69.4797C184.078 69.4464 183.788 69.4831 183.525 69.5898C183.266 69.6939 183.052 69.8542 182.884 70.0708C182.718 70.2848 182.62 70.5387 182.589 70.8325L182.156 74.9519L181.156 74.8468ZM191.397 76.0602C190.854 76.0032 190.39 75.8158 190.003 75.4981C189.617 75.1776 189.333 74.7535 189.152 74.226C188.97 73.6956 188.916 73.0857 188.988 72.3963C189.06 71.7126 189.24 71.1316 189.527 70.6533C189.814 70.1751 190.182 69.8209 190.629 69.5908C191.075 69.3607 191.573 69.2744 192.121 69.332C192.545 69.3766 192.872 69.4824 193.103 69.6495C193.337 69.8141 193.51 69.9922 193.621 70.1838C193.736 70.373 193.824 70.5279 193.885 70.6486L193.97 70.6575L194.307 67.4536L195.307 67.5587L194.395 76.2382L193.428 76.1366L193.533 75.1364L193.415 75.124C193.329 75.2349 193.209 75.3737 193.054 75.5402C192.9 75.704 192.689 75.8433 192.423 75.9581C192.157 76.0701 191.815 76.1042 191.397 76.0602ZM191.627 75.176C192.028 75.2182 192.378 75.1493 192.677 74.9693C192.976 74.7865 193.217 74.5162 193.401 74.1584C193.584 73.7978 193.702 73.3716 193.754 72.88C193.805 72.3941 193.779 71.9614 193.676 71.5821C193.573 71.2 193.394 70.8926 193.138 70.6601C192.883 70.4248 192.552 70.2857 192.145 70.2429C191.722 70.1984 191.357 70.2701 191.052 70.4579C190.749 70.6432 190.508 70.9135 190.328 71.2688C190.151 71.6216 190.038 72.0268 189.99 72.4845C189.941 72.9478 189.968 73.3762 190.069 73.7697C190.174 74.1606 190.354 74.4824 190.611 74.735C190.87 74.985 191.209 75.1321 191.627 75.176ZM198.265 76.7992C197.852 76.7559 197.486 76.6388 197.166 76.4481C196.847 76.2545 196.604 75.999 196.437 75.6816C196.271 75.3613 196.21 74.9893 196.254 74.5655C196.294 74.1925 196.399 73.8979 196.57 73.6817C196.742 73.4626 196.957 73.2996 197.217 73.1927C197.477 73.0857 197.758 73.0153 198.062 72.9815C198.369 72.9452 198.675 72.9231 198.982 72.9153C199.382 72.9061 199.707 72.9016 199.956 72.902C200.207 72.8999 200.393 72.8723 200.513 72.8192C200.635 72.7664 200.705 72.6595 200.722 72.4984L200.726 72.4645C200.77 72.0464 200.689 71.7094 200.485 71.4537C200.283 71.1983 199.952 71.0463 199.492 70.9979C199.014 70.9477 198.629 71.0129 198.336 71.1935C198.042 71.3741 197.828 71.5772 197.693 71.803L196.779 71.3642C196.99 70.9864 197.249 70.7022 197.555 70.5115C197.863 70.3183 198.191 70.1956 198.536 70.1434C198.884 70.0886 199.223 70.0784 199.55 70.1129C199.759 70.1348 199.997 70.1855 200.263 70.2649C200.532 70.3417 200.785 70.4698 201.024 70.6491C201.265 70.8287 201.454 71.0813 201.591 71.4071C201.728 71.7329 201.77 72.1543 201.715 72.6713L201.264 76.9602L200.264 76.8551L200.357 75.9736L200.306 75.9682C200.223 76.1024 200.095 76.2417 199.919 76.3861C199.744 76.5305 199.519 76.6454 199.245 76.7308C198.97 76.8162 198.643 76.839 198.265 76.7992ZM198.512 75.9168C198.907 75.9584 199.249 75.9157 199.537 75.7888C199.827 75.6622 200.054 75.4833 200.219 75.252C200.386 75.0211 200.483 74.77 200.512 74.4988L200.608 73.5834C200.56 73.6298 200.462 73.6666 200.314 73.6938C200.168 73.7185 200.001 73.7366 199.811 73.7481C199.624 73.757 199.442 73.7636 199.265 73.7678C199.09 73.7695 198.949 73.7717 198.84 73.7746C198.576 73.7811 198.328 73.8107 198.094 73.8632C197.863 73.9132 197.67 74.0058 197.516 74.141C197.365 74.2737 197.276 74.4672 197.249 74.7214C197.213 75.069 197.314 75.3452 197.552 75.5502C197.794 75.7527 198.113 75.8749 198.512 75.9168ZM203.245 79.6364C203.075 79.6186 202.925 79.5886 202.795 79.5464C202.665 79.507 202.576 79.4719 202.528 79.4411L202.875 78.5863C203.111 78.674 203.324 78.7192 203.512 78.7219C203.7 78.7245 203.874 78.6585 204.034 78.5239C204.197 78.3925 204.356 78.1678 204.512 77.85L204.752 77.3611L203.033 70.5645L204.117 70.6786L205.369 76.0548L205.437 76.0619L207.779 71.0634L208.864 71.1775L205.317 78.346C205.157 78.6691 204.974 78.9312 204.767 79.1323C204.56 79.3362 204.329 79.4791 204.075 79.5609C203.824 79.643 203.547 79.6682 203.245 79.6364Z" fill="white"/>
<path d="M120.764 42.9214C121.933 41.8177 123.646 41.5156 125.121 42.153L129.657 44.1125C130.453 44.4563 131.338 44.5338 132.182 44.3334L136.989 43.1913C138.552 42.8197 140.187 43.4148 141.146 44.7046L144.094 48.6692C144.612 49.3649 145.34 49.8749 146.171 50.1231L150.905 51.5374C152.445 51.9975 153.563 53.3302 153.749 54.9268L154.319 59.8342C154.42 60.6954 154.795 61.5012 155.391 62.1315L158.783 65.7232C159.887 66.8917 160.189 68.6051 159.551 70.0806L157.592 74.616C157.248 75.4119 157.171 76.2976 157.371 77.1411L158.513 81.9478C158.885 83.5116 158.29 85.1465 157 86.1056L153.035 89.0536C152.34 89.571 151.83 90.2993 151.581 91.13L150.167 95.8638C149.707 97.4038 148.374 98.5222 146.778 98.7079L141.87 99.2786C141.009 99.3788 140.203 99.7546 139.573 100.35L135.981 103.742C134.813 104.846 133.099 105.148 131.624 104.511L127.089 102.551C126.293 102.207 125.407 102.13 124.563 102.33L119.757 103.472C118.193 103.844 116.558 103.249 115.599 101.959L112.651 97.9945C112.134 97.2988 111.405 96.7888 110.574 96.5406L105.841 95.1263C104.301 94.6662 103.182 93.3335 102.997 91.7369L102.426 86.8295C102.326 85.9682 101.95 85.1624 101.355 84.5321L97.9622 80.9404C96.8585 79.7719 96.5564 78.0586 97.1939 76.5831L99.1533 72.0477C99.4971 71.2518 99.5746 70.3661 99.3742 69.5226L98.2321 64.7158C97.8606 63.1521 98.4556 61.5172 99.7454 60.5581L103.71 57.6101C104.406 57.0927 104.916 56.3644 105.164 55.5337L106.578 50.7999C107.038 49.2598 108.371 48.1415 109.968 47.9558L114.875 47.3851C115.736 47.2849 116.542 46.9091 117.172 46.3138L120.764 42.9214Z" fill="#FF8833"/>
<path d="M130.056 43.1893L129.657 44.1125L130.056 43.1893L125.52 41.2299C123.676 40.4331 121.534 40.8107 120.074 42.1903L116.482 45.5827C116.009 46.0292 115.405 46.311 114.759 46.3862L109.851 46.957C107.856 47.1891 106.19 48.587 105.615 50.512L104.2 55.2458C104.014 55.8689 103.632 56.4151 103.11 56.8031L99.1454 59.7511C97.5331 60.95 96.7893 62.9936 97.2537 64.9483L98.3958 69.755C98.5461 70.3877 98.488 71.052 98.2301 71.6489L96.2707 76.1843C95.4739 78.0286 95.8515 80.1703 97.2311 81.631L100.624 85.2226C101.07 85.6954 101.352 86.2997 101.427 86.9456L101.998 91.8531C102.23 93.8488 103.628 95.5147 105.553 96.0899L110.287 97.5041C110.91 97.6903 111.456 98.0728 111.844 98.5946L114.792 102.559C115.991 104.171 118.034 104.915 119.989 104.451L124.796 103.309C125.428 103.158 126.093 103.216 126.69 103.474L131.225 105.434C133.069 106.231 135.211 105.853 136.672 104.473L140.263 101.081C140.736 100.634 141.341 100.353 141.986 100.278L146.894 99.7067C148.89 99.4746 150.556 98.0767 151.131 96.1517L152.545 91.4179C152.731 90.7948 153.114 90.2486 153.635 89.8606L157.6 86.9125C159.212 85.7137 159.956 83.6701 159.492 81.7154L158.35 76.9087C158.199 76.276 158.257 75.6117 158.515 75.0148L160.475 70.4794C161.271 68.635 160.894 66.4934 159.514 65.0327L156.122 61.441C155.675 60.9683 155.393 60.364 155.318 59.718L154.748 54.8106C154.515 52.8149 153.118 51.149 151.192 50.5738L146.459 49.1595C145.836 48.9734 145.289 48.5909 144.901 48.0691L141.953 44.1045C140.755 42.4923 138.711 41.7485 136.756 42.2129L131.949 43.355C131.317 43.5053 130.653 43.4472 130.056 43.1893Z" stroke="#FF8833" stroke-opacity="0.2" stroke-width="2.01124"/>
<g clip-path="url(#clip0_1_956)">
<path d="M131.496 87.1905C137.312 86.0602 141.107 80.4177 139.974 74.5876C138.965 69.3965 133.208 63.9507 129.364 60.816C128.106 59.7902 127.477 59.2772 126.85 59.4094C126.663 59.449 126.465 59.5402 126.312 59.657C125.804 60.0468 125.782 60.8868 125.738 62.5668L125.607 67.5948C125.584 68.4591 125.573 68.8913 125.425 69.0421C125.286 69.1839 125.081 69.2372 124.89 69.1807C124.688 69.1206 124.468 68.7482 124.029 68.0035C123.375 66.8928 123.047 66.3374 122.619 66.1678C122.229 66.0132 121.744 66.0625 121.393 66.2923C121.008 66.5446 120.808 67.1278 120.41 68.2943C119.168 71.9249 118.353 75.7926 118.915 78.6811C120.048 84.5111 125.681 88.3209 131.496 87.1905Z" fill="white"/>
</g>
<defs>
<clipPath id="clip0_1_956">
<rect width="32.1798" height="32.1798" fill="white" transform="translate(110.074 61.3044) rotate(-11)"/>
</clipPath>
</defs>
</svg>
