<svg width="16" height="16" viewBox="0 0 16 16" fill="none" xmlns="http://www.w3.org/2000/svg">
<path fill-rule="evenodd" clip-rule="evenodd" d="M4.57664 8.00006C4.57664 6.10933 6.10934 4.57662 8.00007 4.57662C9.89077 4.57662 11.4235 6.10933 11.4235 8.00006C11.4235 9.89076 9.89077 11.4235 8.00007 11.4235C6.10934 11.4235 4.57664 9.89076 4.57664 8.00006ZM5.77785 8.00006C5.77785 9.22735 6.77276 10.2223 8.00008 10.2223C9.22738 10.2223 10.2223 9.22735 10.2223 8.00006C10.2223 6.77274 9.22738 5.77782 8.00008 5.77782C6.77276 5.77782 5.77785 6.77274 5.77785 8.00006Z" fill="black" fill-opacity="0.4"/>
<path d="M11.5587 5.24136C12.0006 5.24136 12.3587 4.8832 12.3587 4.44137C12.3587 3.99953 12.0006 3.64135 11.5587 3.64135C11.1169 3.64135 10.7587 3.99953 10.7587 4.44137C10.7587 4.8832 11.1169 5.24136 11.5587 5.24136Z" fill="black" fill-opacity="0.4"/>
<path fill-rule="evenodd" clip-rule="evenodd" d="M8.00005 1.33337C6.18948 1.33337 5.96245 1.34105 5.25138 1.37349C4.54179 1.40586 4.05717 1.51856 3.63312 1.68338C3.19473 1.85372 2.82294 2.08168 2.4523 2.4523C2.08168 2.82294 1.85372 3.19473 1.68338 3.63312C1.51856 4.05717 1.40586 4.54179 1.37349 5.25138C1.34105 5.96245 1.33337 6.18948 1.33337 8.00005C1.33337 9.8106 1.34105 10.0376 1.37349 10.7487C1.40586 11.4583 1.51856 11.9429 1.68338 12.367C1.85372 12.8054 2.08168 13.1771 2.4523 13.5478C2.82294 13.9184 3.19473 14.1464 3.63312 14.3167C4.05717 14.4815 4.54179 14.5942 5.25138 14.6266C5.96245 14.659 6.18948 14.6667 8.00005 14.6667C9.8106 14.6667 10.0376 14.659 10.7487 14.6266C11.4583 14.5942 11.9429 14.4815 12.367 14.3167C12.8054 14.1464 13.1771 13.9184 13.5478 13.5478C13.9184 13.1771 14.1464 12.8054 14.3167 12.367C14.4815 11.9429 14.5942 11.4583 14.6266 10.7487C14.659 10.0376 14.6667 9.8106 14.6667 8.00005C14.6667 6.18948 14.659 5.96245 14.6266 5.25138C14.5942 4.54179 14.4815 4.05717 14.3167 3.63312C14.1464 3.19473 13.9184 2.82294 13.5478 2.4523C13.1771 2.08168 12.8054 1.85372 12.367 1.68338C11.9429 1.51856 11.4583 1.40586 10.7487 1.37349C10.0376 1.34105 9.8106 1.33337 8.00005 1.33337ZM8.00005 2.53458C9.78011 2.53458 9.99097 2.54138 10.6939 2.57345C11.3439 2.60309 11.6969 2.7117 11.9318 2.80299C12.243 2.92393 12.4651 3.0684 12.6984 3.3017C12.9317 3.53497 13.0761 3.75705 13.1971 4.06823C13.2884 4.30315 13.397 4.65614 13.4266 5.30614C13.4587 6.00911 13.4655 6.21997 13.4655 8.00006C13.4655 9.78012 13.4587 9.99098 13.4266 10.6939C13.397 11.3439 13.2884 11.6969 13.1971 11.9319C13.0761 12.243 12.9317 12.4651 12.6984 12.6984C12.4651 12.9317 12.243 13.0762 11.9318 13.1971C11.6969 13.2884 11.3439 13.397 10.6939 13.4266C9.99108 13.4587 9.78024 13.4655 8.00005 13.4655C6.21983 13.4655 6.00903 13.4587 5.30613 13.4266C4.65614 13.397 4.30314 13.2884 4.06823 13.1971C3.75704 13.0762 3.53496 12.9317 3.30169 12.6984C3.06841 12.4651 2.92392 12.243 2.80299 11.9319C2.71169 11.6969 2.60308 11.3439 2.57344 10.6939C2.54137 9.99098 2.53457 9.78012 2.53457 8.00006C2.53457 6.21997 2.54137 6.00911 2.57344 5.30614C2.60308 4.65614 2.71169 4.30315 2.80299 4.06823C2.92392 3.75705 3.06839 3.53497 3.30169 3.3017C3.53496 3.0684 3.75704 2.92393 4.06823 2.80299C4.30314 2.7117 4.65614 2.60309 5.30613 2.57345C6.0091 2.54138 6.21996 2.53458 8.00005 2.53458Z" fill="black" fill-opacity="0.4"/>
</svg>
