<svg width="20" height="20" viewBox="0 0 20 20" fill="none" xmlns="http://www.w3.org/2000/svg">
<path d="M1.66669 5.00008C1.66669 4.53984 2.03978 4.16675 2.50002 4.16675H17.5C17.9603 4.16675 18.3334 4.53984 18.3334 5.00008C18.3334 5.46032 17.9603 5.83341 17.5 5.83341H2.50002C2.03978 5.83341 1.66669 5.46032 1.66669 5.00008Z" fill="black"/>
<path d="M1.66669 10.0001C1.66669 9.53984 2.03978 9.16675 2.50002 9.16675H17.5C17.9603 9.16675 18.3334 9.53984 18.3334 10.0001C18.3334 10.4603 17.9603 10.8334 17.5 10.8334H2.50002C2.03978 10.8334 1.66669 10.4603 1.66669 10.0001Z" fill="black"/>
<path d="M2.50002 14.1667C2.03978 14.1667 1.66669 14.5398 1.66669 15.0001C1.66669 15.4603 2.03978 15.8334 2.50002 15.8334H17.5C17.9603 15.8334 18.3334 15.4603 18.3334 15.0001C18.3334 14.5398 17.9603 14.1667 17.5 14.1667H2.50002Z" fill="black"/>
</svg>
