<svg width="24" height="24" viewBox="0 0 24 24" fill="none" xmlns="http://www.w3.org/2000/svg">
<path d="M8.38104 20.7656C16.5167 20.7656 20.9685 14.0189 20.9685 8.17815C20.9685 7.98834 20.9685 7.79854 20.9599 7.60874C21.8226 6.98756 22.5732 6.20246 23.1685 5.31383C22.3748 5.66756 21.5206 5.9005 20.6234 6.01266C21.5379 5.46913 22.2367 4.59776 22.5732 3.56246C21.7191 4.07148 20.7701 4.43383 19.7607 4.63227C18.9497 3.76952 17.8022 3.23462 16.534 3.23462C14.0924 3.23462 12.1081 5.21893 12.1081 7.6605C12.1081 8.0056 12.1512 8.34207 12.2203 8.66991C8.54496 8.48874 5.28378 6.72011 3.10104 4.0456C2.72143 4.70129 2.50575 5.4605 2.50575 6.27148C2.50575 7.80717 3.29084 9.16168 4.4728 9.9554C3.7481 9.92952 3.06653 9.73109 2.47124 9.40325C2.47124 9.4205 2.47124 9.43776 2.47124 9.46364C2.47124 11.6032 3.99829 13.3978 6.01712 13.8032C5.64614 13.9068 5.2579 13.9585 4.85241 13.9585C4.56771 13.9585 4.29163 13.9327 4.02418 13.8809C4.58496 15.6409 6.22418 16.9178 8.15673 16.9523C6.63829 18.1429 4.73163 18.8503 2.66104 18.8503C2.30731 18.8503 1.95359 18.8331 1.60849 18.7899C3.55829 20.0323 5.88771 20.7656 8.38104 20.7656Z" fill="black"/>
</svg>
