<svg width="20" height="20" viewBox="0 0 20 20" fill="none" xmlns="http://www.w3.org/2000/svg">
<path d="M12.5001 7.50008C12.5001 8.88079 11.3808 10.0001 10.0001 10.0001C8.61934 10.0001 7.50005 8.88079 7.50005 7.50008C7.50005 6.11937 8.61934 5.00008 10.0001 5.00008C11.3808 5.00008 12.5001 6.11937 12.5001 7.50008Z" fill="black"/>
<path fill-rule="evenodd" clip-rule="evenodd" d="M18.3334 10.0001C18.3334 14.6025 14.6024 18.3334 10.0001 18.3334C5.39768 18.3334 1.66672 14.6025 1.66672 10.0001C1.66672 5.39771 5.39768 1.66675 10.0001 1.66675C14.6024 1.66675 18.3334 5.39771 18.3334 10.0001ZM3.33338 10.0001C3.33338 11.3907 3.75918 12.6819 4.48752 13.7504C5.9566 12.4536 7.88643 11.6667 10.0001 11.6667C12.1137 11.6667 14.0435 12.4536 15.5126 13.7504C16.2409 12.6819 16.6667 11.3907 16.6667 10.0001C16.6667 6.31818 13.6819 3.33341 10.0001 3.33341C6.31815 3.33341 3.33338 6.31818 3.33338 10.0001ZM10.0001 16.6667C8.30931 16.6667 6.76557 16.0374 5.59034 15.0001C6.76557 13.9628 8.30931 13.3334 10.0001 13.3334C11.6908 13.3334 13.2345 13.9628 14.4098 15.0001C13.2345 16.0374 11.6908 16.6667 10.0001 16.6667Z" fill="black"/>
</svg>
